ExternalForces									
version=1									
nRows=270									
nColumns=10									
inDegrees=yes									
endheader									
time	chair_force_vx	chair_force_vy	chair_force_vz	chair_force_px	chair_force_py	chair_force_pz	chair_torque_x	chair_torque_y	chair_torque_z
0	369.6591743	461.298018	0	0	0	0	0	0	0
0.01666705	359.6849113	454.3236204	0	0	0	0	0	0	0
0.02412387	373.5448004	449.6938586	0	0	0	0	0	0	0
0.02523979	361.5869511	449.4732226	0	0	0	0	0	0	0
0.02808288	354.4575367	448.0375388	0	0	0	0	0	0	0
0.03461591	346.4768514	444.2771301	0	0	0	0	0	0	0
0.03938924	349.7044834	441.0373348	0	0	0	0	0	0	0
0.04477047	337.6587825	437.9060541	0	0	0	0	0	0	0
0.04888262	343.4071849	434.7950754	0	0	0	0	0	0	0
0.05388262	332.1873174	431.744267	0	0	0	0	0	0	0
0.05888262	346.0268039	427.4036433	0	0	0	0	0	0	0
0.06020492	334.9596149	426.9654434	0	0	0	0	0	0	0
0.06329537	328.1043085	424.9977121	0	0	0	0	0	0	0
0.07031841	312.5068881	420.5048569	0	0	0	0	0	0	0
0.07110679	319.4491617	419.5020613	0	0	0	0	0	0	0
0.07285427	319.7987754	418.1254381	0	0	0	0	0	0	0
0.07796223	318.3401553	414.1908384	0	0	0	0	0	0	0
0.08326466	310.3521535	410.448347	0	0	0	0	0	0	0
0.08700067	315.5452366	407.0567193	0	0	0	0	0	0	0
0.09196148	299.7330638	404.080073	0	0	0	0	0	0	0
0.09333777	305.6163132	402.5082535	0	0	0	0	0	0	0
0.09579336	303.5687796	400.6083162	0	0	0	0	0	0	0
0.1059073	291.2150031	392.0781553	0	0	0	0	0	0	0
0.10712268	294.3189131	390.2736465	0	0	0	0	0	0	0
0.1097498	292.2200243	386.7242186	0	0	0	0	0	0	0
0.11750304	281.2753142	373.7610939	0	0	0	0	0	0	0
0.11852817	282.8589866	371.4683219	0	0	0	0	0	0	0
0.12154974	281.3924915	364.9752122	0	0	0	0	0	0	0
0.12681309	262.6225662	354.4003974	0	0	0	0	0	0	0
0.12744602	271.9401607	351.8170389	0	0	0	0	0	0	0
0.12894912	273.0991665	347.8818506	0	0	0	0	0	0	0
0.13237552	269.7932752	339.3153225	0	0	0	0	0	0	0
0.14025102	254.6041632	319.6251834	0	0	0	0	0	0	0
0.14109829	260.2883118	316.5498282	0	0	0	0	0	0	0
0.14285653	259.5347365	311.6875385	0	0	0	0	0	0	0
0.14803391	254.9531671	297.5079838	0	0	0	0	0	0	0
0.15179504	250.2029535	287.0542937	0	0	0	0	0	0	0
0.15555617	252.6342726	273.6251704	0	0	0	0	0	0	0
0.15823049	240.8902544	265.359532	0	0	0	0	0	0	0
0.16248602	225.3757544	251.251666	0	0	0	0	0	0	0
0.16369625	229.2467937	245.8117188	0	0	0	0	0	0	0
0.16575611	223.869094	238.3225725	0	0	0	0	0	0	0
0.17297662	204.8792829	211.9393514	0	0	0	0	0	0	0
0.17408461	204.5650029	207.478123	0	0	0	0	0	0	0
0.17714725	199.1531434	195.9603483	0	0	0	0	0	0	0
0.1811859	183.6617869	182.4596901	0	0	0	0	0	0	0
0.18238976	187.0077019	177.0301709	0	0	0	0	0	0	0
0.18447172	181.7322707	169.7345712	0	0	0	0	0	0	0
0.19129197	171.1814376	145.1291562	0	0	0	0	0	0	0
0.19264981	166.1083332	140.9261381	0	0	0	0	0	0	0
0.1966036	152.3143022	128.7651726	0	0	0	0	0	0	0
0.19776386	155.970647	123.6497781	0	0	0	0	0	0	0
0.19978781	151.5910872	117.035468	0	0	0	0	0	0	0
0.20674421	97.0830081	102.9853011	0	0	0	0	0	0	0
0.20748505	132.1827895	92.18347791	0	0	0	0	0	0	0
0.20822589	130.6757696	89.66381882	0	0	0	0	0	0	0
0.21193007	120.896878	77.46677897	0	0	0	0	0	0	0
0.2171514	103.8568371	60.8920214	0	0	0	0	0	0	0
0.22874514	62.24452814	25.38243853	0	0	0	0	0	0	0
0.24475336	0	0	0	0	0	0	0	0	0
0.24867836	0	0	0	0	0	0	0	0	0
0.25414609	0	0	0	0	0	0	0	0	0
0.25852982	0	0	0	0	0	0	0	0	0
0.26219121	0	0	0	0	0	0	0	0	0
0.26585259	0	0	0	0	0	0	0	0	0
0.27091602	0	0	0	0	0	0	0	0	0
0.27602993	0	0	0	0	0	0	0	0	0
0.27920062	0	0	0	0	0	0	0	0	0
0.28310339	0	0	0	0	0	0	0	0	0
0.29171658	0	0	0	0	0	0	0	0	0
0.2932651	0	0	0	0	0	0	0	0	0
0.29775393	0	0	0	0	0	0	0	0	0
0.30257681	0	0	0	0	0	0	0	0	0
0.3063133	0	0	0	0	0	0	0	0	0
0.31004979	0	0	0	0	0	0	0	0	0
0.31378628	0	0	0	0	0	0	0	0	0
0.31859715	0	0	0	0	0	0	0	0	0
0.32218432	0	0	0	0	0	0	0	0	0
0.32577149	0	0	0	0	0	0	0	0	0
0.32935867	0	0	0	0	0	0	0	0	0
0.33431308	0	0	0	0	0	0	0	0	0
0.33751965	0	0	0	0	0	0	0	0	0
0.34072622	0	0	0	0	0	0	0	0	0
0.34504736	0	0	0	0	0	0	0	0	0
0.35025935	0	0	0	0	0	0	0	0	0
0.35361472	0	0	0	0	0	0	0	0	0
0.35697009	0	0	0	0	0	0	0	0	0
0.36032546	0	0	0	0	0	0	0	0	0
0.36562313	0	0	0	0	0	0	0	0	0
0.36783418	0	0	0	0	0	0	0	0	0
0.37101446	0	0	0	0	0	0	0	0	0
0.37906475	0	0	0	0	0	0	0	0	0
0.38058205	0	0	0	0	0	0	0	0	0
0.38474913	0	0	0	0	0	0	0	0	0
0.387838	0	0	0	0	0	0	0	0	0
0.39092686	0	0	0	0	0	0	0	0	0
0.39524818	0	0	0	0	0	0	0	0	0
0.40520768	0	0	0	0	0	0	0	0	0
0.40820461	0	0	0	0	0	0	0	0	0
0.41392535	0	0	0	0	0	0	0	0	0
0.42079327	0	0	0	0	0	0	0	0	0
0.42172957	0	0	0	0	0	0	0	0	0
0.42385167	0	0	0	0	0	0	0	0	0
0.42911712	0	0	0	0	0	0	0	0	0
0.43438257	0	0	0	0	0	0	0	0	0
0.43667233	0	0	0	0	0	0	0	0	0
0.44124755	0	0	0	0	0	0	0	0	0
0.44582277	0	0	0	0	0	0	0	0	0
0.45355925	0	0	0	0	0	0	0	0	0
0.45536423	0	0	0	0	0	0	0	0	0
0.46124565	0	0	0	0	0	0	0	0	0
0.46606581	0	0	0	0	0	0	0	0	0
0.46792846	0	0	0	0	0	0	0	0	0
0.47221715	0	0	0	0	0	0	0	0	0
0.47772883	0	0	0	0	0	0	0	0	0
0.48199209	0	0	0	0	0	0	0	0	0
0.48625535	0	0	0	0	0	0	0	0	0
0.49182236	0	0	0	0	0	0	0	0	0
0.4965097	0	0	0	0	0	0	0	0	0
0.50119703	0	0	0	0	0	0	0	0	0
0.50588437	0	0	0	0	0	0	0	0	0
0.5105717	0	0	0	0	0	0	0	0	0
0.51378903	0	0	0	0	0	0	0	0	0
0.51700636	0	0	0	0	0	0	0	0	0
0.52162654	0	0	0	0	0	0	0	0	0
0.52649122	0	0	0	0	0	0	0	0	0
0.53050073	0	0	0	0	0	0	0	0	0
0.53219882	0	0	0	0	0	0	0	0	0
0.53522045	0	0	0	0	0	0	0	0	0
0.54000607	0	0	0	0	0	0	0	0	0
0.54316751	0	0	0	0	0	0	0	0	0
0.54762803	0	0	0	0	0	0	0	0	0
0.55068061	0	0	0	0	0	0	0	0	0
0.55475826	0	0	0	0	0	0	0	0	0
0.55840245	0	0	0	0	0	0	0	0	0
0.56229901	0	0	0	0	0	0	0	0	0
0.56331396	0	0	0	0	0	0	0	0	0
0.56525758	0	0	0	0	0	0	0	0	0
0.56967564	0	0	0	0	0	0	0	0	0
0.57170783	0	0	0	0	0	0	0	0	0
0.57418405	0	0	0	0	0	0	0	0	0
0.57872279	0	0	0	0	0	0	0	0	0
0.58198972	0	0	0	0	0	0	0	0	0
0.58636553	0	0	0	0	0	0	0	0	0
0.58750744	0	0	0	0	0	0	0	0	0
0.59020418	0	0	0	0	0	0	0	0	0
0.59462712	0	0	0	0	0	0	0	0	0
0.59806139	0	0	0	0	0	0	0	0	0
0.60244645	0	0	0	0	0	0	0	0	0
0.60408947	0	0	0	0	0	0	0	0	0
0.60665506	0	0	0	0	0	0	0	0	0
0.61087851	0	0	0	0	0	0	0	0	0
0.61555365	0	0	0	0	0	0	0	0	0
0.61976085	0	0	0	0	0	0	0	0	0
0.62396805	0	0	0	0	0	0	0	0	0
0.62817525	0	0	0	0	0	0	0	0	0
0.63238246	0	0	0	0	0	0	0	0	0
0.63658966	0	0	0	0	0	0	0	0	0
0.64213853	0	0	0	0	0	0	0	0	0
0.6476874	0	0	0	0	0	0	0	0	0
0.65251268	0	0	0	0	0	0	0	0	0
0.65733796	0	0	0	0	0	0	0	0	0
0.66436061	0	0	0	0	0	0	0	0	0
0.67138325	0	0	0	0	0	0	0	0	0
0.67803293	0	0	0	0	0	0	0	0	0
0.68468261	0	0	0	0	0	0	0	0	0
0.69192789	0	0	0	0	0	0	0	0	0
0.69917318	0	0	0	0	0	0	0	0	0
0.70641846	0	0	0	0	0	0	0	0	0
0.71366374	0	0	0	0	0	0	0	0	0
0.72090902	0	0	0	0	0	0	0	0	0
0.72815431	0	0	0	0	0	0	0	0	0
0.73539959	0	0	0	0	0	0	0	0	0
0.74264487	0	0	0	0	0	0	0	0	0
0.75058948	0	0	0	0	0	0	0	0	0
0.7585341	0	0	0	0	0	0	0	0	0
0.76647871	0	0	0	0	0	0	0	0	0
0.77442332	0	0	0	0	0	0	0	0	0
0.78236794	0	0	0	0	0	0	0	0	0
0.79259676	0	0	0	0	0	0	0	0	0
0.80282558	0	0	0	0	0	0	0	0	0
0.81153256	0	0	0	0	0	0	0	0	0
0.82023954	0	0	0	0	0	0	0	0	0
0.8323628	0	0	0	0	0	0	0	0	0
0.84448605	0	0	0	0	0	0	0	0	0
0.85706058	0	0	0	0	0	0	0	0	0
0.86256018	0	0	0	0	0	0	0	0	0
0.86925843	0	0	0	0	0	0	0	0	0
0.88093033	0	0	0	0	0	0	0	0	0
0.89260224	0	0	0	0	0	0	0	0	0
0.89931578	0	0	0	0	0	0	0	0	0
0.90385586	0	0	0	0	0	0	0	0	0
0.90839594	0	0	0	0	0	0	0	0	0
0.91574924	0	0	0	0	0	0	0	0	0
0.92310254	0	0	0	0	0	0	0	0	0
0.93394311	0	0	0	0	0	0	0	0	0
0.94911007	0	0	0	0	0	0	0	0	0
0.96110742	0	0	0	0	0	0	0	0	0
0.97310477	0	0	0	0	0	0	0	0	0
0.98510211	0	0	0	0	0	0	0	0	0
0.99954373	0	0	0	0	0	0	0	0	0
1.00543465	0	0	0	0	0	0	0	0	0
1.01295032	0	0	0	0	0	0	0	0	0
1.02469991	0	0	0	0	0	0	0	0	0
1.03333614	0	0	0	0	0	0	0	0	0
1.04197237	0	0	0	0	0	0	0	0	0
1.04775808	0	0	0	0	0	0	0	0	0
1.05354378	0	0	0	0	0	0	0	0	0
1.06053872	0	0	0	0	0	0	0	0	0
1.06799018	0	0	0	0	0	0	0	0	0
1.07544164	0	0	0	0	0	0	0	0	0
1.08656229	0	0	0	0	0	0	0	0	0
1.09932029	0	0	0	0	0	0	0	0	0
1.10496198	0	0	0	0	0	0	0	0	0
1.11060367	0	0	0	0	0	0	0	0	0
1.12351973	0	0	0	0	0	0	0	0	0
1.13319851	0	0	0	0	0	0	0	0	0
1.1428773	0	0	0	0	0	0	0	0	0
1.15584709	0	0	0	0	0	0	0	0	0
1.16360529	0	0	0	0	0	0	0	0	0
1.17136348	0	0	0	0	0	0	0	0	0
1.1865234	0	0	0	0	0	0	0	0	0
1.19960373	0	0	0	0	0	0	0	0	0
1.2049449	0	0	0	0	0	0	0	0	0
1.2122172	0	0	0	0	0	0	0	0	0
1.22219352	0	0	0	0	0	0	0	0	0
1.2360556	0	0	0	0	0	0	0	0	0
1.24991769	0	0	0	0	0	0	0	0	0
1.26991239	0	0	0	0	0	0	0	0	0
1.27923999	0	0	0	0	0	0	0	0	0
1.29176181	0	0	0	0	0	0	0	0	0
1.29566303	0	0	0	0	0	0	0	0	0
1.30057069	0	0	0	0	0	0	0	0	0
1.30503789	0	0	0	0	0	0	0	0	0
1.30950508	0	0	0	0	0	0	0	0	0
1.31719968	0	0	0	0	0	0	0	0	0
1.32489429	0	0	0	0	0	0	0	0	0
1.33258889	0	0	0	0	0	0	0	0	0
1.34313434	0	0	0	0	0	0	0	0	0
1.35683128	0	0	0	0	0	0	0	0	0
1.36974589	0	0	0	0	0	0	0	0	0
1.3826605	0	0	0	0	0	0	0	0	0
1.38911775	0	0	0	0	0	0	0	0	0
1.395575	0	0	0	0	0	0	0	0	0
1.40501626	0	0	0	0	0	0	0	0	0
1.41698492	0	0	0	0	0	0	0	0	0
1.42441247	0	0	0	0	0	0	0	0	0
1.43184002	0	0	0	0	0	0	0	0	0
1.43926757	0	0	0	0	0	0	0	0	0
1.4490847	0	0	0	0	0	0	0	0	0
1.45695514	0	0	0	0	0	0	0	0	0
1.46482558	0	0	0	0	0	0	0	0	0
1.47269602	0	0	0	0	0	0	0	0	0
1.47703282	0	0	0	0	0	0	0	0	0
1.48136963	0	0	0	0	0	0	0	0	0
1.48704123	0	0	0	0	0	0	0	0	0
1.49271282	0	0	0	0	0	0	0	0	0
1.50116115	0	0	0	0	0	0	0	0	0
1.50851481	0	0	0	0	0	0	0	0	0
1.51586848	0	0	0	0	0	0	0	0	0
1.52509018	0	0	0	0	0	0	0	0	0
1.53431188	0	0	0	0	0	0	0	0	0
1.54353358	0	0	0	0	0	0	0	0	0
1.5582498	0	0	0	0	0	0	0	0	0
1.56760724	0	0	0	0	0	0	0	0	0
1.57696467	0	0	0	0	0	0	0	0	0
1.58309405	0	0	0	0	0	0	0	0	0
1.58922344	0	0	0	0	0	0	0	0	0
1.59535282	0	0	0	0	0	0	0	0	0
1.6	0	0	0	0	0	0	0	0	0
